<?xml version="1.0" standalone="no"?>
<!DOCTYPE svg PUBLIC "-//W3C//DTD SVG 1.1//EN" "http://www.w3.org/Graphics/SVG/1.1/DTD/svg11.dtd" >
<svg xmlns="http://www.w3.org/2000/svg">
<metadata>
This is a custom SVG webfont generated by Font Squirrel.
Copyright   : Copyright c 1990 Adobe Systems Incorporated  All Rights ReservedRotis is a trademark of Agfa Corporation
</metadata>
<defs>
<font id="RotisSansSerifExtraBold" horiz-adv-x="1024" >
<font-face units-per-em="2048" ascent="1638" descent="-410" />
<missing-glyph horiz-adv-x="606" />
<glyph unicode=" "  horiz-adv-x="606" />
<glyph unicode="&#x09;" horiz-adv-x="606" />
<glyph unicode="&#xa0;" horiz-adv-x="606" />
<glyph unicode="!" horiz-adv-x="645" d="M258 0v281h281v-281h-281zM276 1413h244l-16 -993h-211z" />
<glyph unicode="&#x22;" horiz-adv-x="872" d="M109 1413h276l-51 -485h-187zM489 1413h277l-51 -485h-187z" />
<glyph unicode="#" horiz-adv-x="1214" d="M127 387l41 164h143l49 194h-141l41 164h143l99 389h186l-98 -389h162l100 389h186l-100 -389h147l-43 -164h-145l-51 -194h147l-43 -164h-145l-98 -387h-187l98 387h-163l-99 -387h-186l98 387h-141zM498 551h161l52 194h-164z" />
<glyph unicode="$" horiz-adv-x="1175" d="M106 295h265q0 -168 159 -195v547q-68 20 -105.5 32.5t-103 45.5t-100.5 68.5t-63.5 96t-28.5 134.5q0 94 42 166t106.5 108.5t129 54t123.5 17.5v164h121v-164q182 -18 280.5 -103t115.5 -220h-265q-4 43 -7 61t-14 52t-39 54.5t-71 32.5v-497q6 -2 49 -15.5t60.5 -19.5 t60.5 -22.5t64.5 -31t57.5 -38t55.5 -49t41 -58.5t30.5 -74t9 -88q0 -94 -28.5 -162.5t-66.5 -106.5t-102.5 -61.5t-112.5 -31.5t-118 -15v-186h-121v186q-213 12 -310.5 88t-113.5 230zM399 1034q0 -176 131 -237v450q-131 -31 -131 -213zM651 100q82 18 120 71.5t38 164.5 q0 193 -158 262v-498z" />
<glyph unicode="%" horiz-adv-x="1820" d="M59 862q0 459 338 459q340 0 340 -459t-340 -459q-338 0 -338 459zM233 862q0 -346 164 -346q166 0 166 346t-166 346q-164 0 -164 -346zM594 0l475 1298h156l-475 -1298h-156zM1085 436q0 459 338 459q340 0 340 -459t-340 -459q-338 0 -338 459zM1260 436 q0 -172 37.5 -259t125.5 -87q166 0 166 346t-166 346q-88 0 -125.5 -87t-37.5 -259z" />
<glyph unicode="&#x26;" horiz-adv-x="1402" d="M94 356q0 96 26.5 164t74 106t92.5 55t104 28v4q-55 14 -87 26.5t-82 45t-75.5 91t-25.5 140.5q0 100 36 170.5t99 107.5t133 53.5t152 16.5q121 0 231 -37v-164q-96 53 -205 54q-96 0 -143 -60.5t-47 -155.5q0 -131 68.5 -175t199.5 -44h283v430l227 136v-566h258v-145 h-258v-320q0 -193 148 -192q45 0 110 27v-158q-72 -16 -164 -17q-164 0 -242.5 57.5t-78.5 203.5v399h-279q-59 0 -94 -3t-79 -17.5t-68.5 -43t-41 -82t-16.5 -129.5q0 -125 65.5 -181t174.5 -56q98 0 201 49v-164q-127 -33 -240 -33q-203 0 -330 90t-127 289z" />
<glyph unicode="'" horiz-adv-x="493" d="M109 1413h276l-51 -485h-187z" />
<glyph unicode="(" horiz-adv-x="681" d="M131 641q0 158 3 235.5t15.5 205.5t45 194.5t86 142.5t143.5 112t213 46v-164q-49 -2 -87 -17.5t-65.5 -52t-47 -72.5t-32 -102.5t-19.5 -112.5t-9 -133t-3 -136.5t-1 -145.5t1 -146.5t3 -136.5t9 -133t19.5 -113.5t32 -101.5t47 -72.5t65.5 -53t87 -17.5v-164 q-123 10 -213 46t-143.5 112t-86 142.5t-45 194.5t-15.5 206.5t-3 236.5z" />
<glyph unicode=")" horiz-adv-x="681" d="M49 -133q49 2 87 17.5t65.5 53t47 72.5t32 101.5t19.5 113.5t9 133t3 136.5t1 146.5t-1 145.5t-3 136.5t-9 133t-19.5 112.5t-32 102.5t-47 72.5t-65.5 52t-87 17.5v164q123 -10 213 -46t143.5 -112t86 -142.5t45 -194.5t15.5 -205.5t3 -235.5t-3 -236.5t-15.5 -206.5 t-45 -194.5t-86 -142.5t-143.5 -112t-213 -46v164z" />
<glyph unicode="*" horiz-adv-x="645" d="M12 1034v144h142l69 -21l4 4l-53 51l-72 129l125 72l74 -127l21 -74h4l16 74l74 127l123 -72l-72 -129l-51 -51l4 -4l72 21h141v-144h-141l-72 21l-4 -4l51 -52l72 -125l-123 -71l-74 123l-16 73h-4l-21 -73l-74 -123l-125 71l72 125l53 52l-4 4l-69 -21h-142z" />
<glyph unicode="+" horiz-adv-x="1214" d="M121 430v184h387v383h199v-383h387v-184h-387v-430h-199v430h-387z" />
<glyph unicode="," horiz-adv-x="493" d="M117 -205l37 486h256l-97 -486h-196z" />
<glyph unicode="-" horiz-adv-x="948" d="M94 418v221h762v-221h-762z" />
<glyph unicode="." horiz-adv-x="493" d="M106 0v281h281v-281h-281z" />
<glyph unicode="/" horiz-adv-x="645" d="M-20 -279l469 1838h217l-469 -1838h-217z" />
<glyph unicode="0" horiz-adv-x="1138" d="M74 649q0 135 26.5 251t83 213t154.5 152.5t231 55.5t231.5 -55.5t155 -152.5t83 -213t26.5 -251t-26.5 -250.5t-83 -213t-155 -153t-231.5 -55.5t-231 55.5t-154.5 153t-83 213t-26.5 250.5zM330 649q0 -508 239.5 -508t239.5 508t-239.5 508t-239.5 -508z" />
<glyph unicode="1" horiz-adv-x="1138" d="M236 965v194l305 162h192v-1321h-233v1114z" />
<glyph unicode="2" horiz-adv-x="1138" d="M98 0v195q55 41 147.5 124.5t203 200.5t188.5 244t78 219q0 82 -47 133t-131 51t-131.5 -50t-47.5 -122h-256q6 59 28 110.5t68 103t134 82t211 30.5q182 0 305 -91t123 -274q0 -86 -35 -174t-80 -153.5t-124 -143t-127 -117.5t-130 -102.5t-96 -75.5v-4h596v-186h-877z " />
<glyph unicode="3" horiz-adv-x="1138" d="M80 293h270q0 -59 41 -105.5t133 -46.5q201 0 201 230q0 74 -22.5 122t-65.5 70.5t-86 29.5t-102 7v164q43 0 70.5 2t65.5 14.5t59.5 34t37.5 62.5t16 100q0 180 -161 180q-51 0 -85 -12t-51.5 -36t-24.5 -46.5t-9 -50.5h-256q0 123 110.5 216t313.5 93q190 0 304.5 -87 t114.5 -253q0 -131 -61.5 -201.5t-147.5 -91.5v-4q113 -29 174.5 -99.5t61.5 -236.5q0 -184 -116.5 -277.5t-327.5 -93.5q-240 0 -343.5 91.5t-113.5 224.5z" />
<glyph unicode="4" horiz-adv-x="1138" d="M57 326v161l549 811h264v-796h230v-176h-230v-326h-225v326h-588zM274 502h371v555h-4z" />
<glyph unicode="5" horiz-adv-x="1138" d="M129 295h270q20 -154 191 -154q213 0 213 252q0 254 -211 254q-63 0 -109.5 -29.5t-60.5 -64.5h-238l37 745h733v-176h-514l-18 -383q88 61 225 62q197 0 304.5 -107.5t107.5 -312.5q0 -207 -130 -305.5t-337 -98.5q-430 1 -463 318z" />
<glyph unicode="6" horiz-adv-x="1138" d="M135 651q0 164 20.5 278.5t73 208t149.5 138.5t245 45q201 0 296 -95.5t103 -219.5h-256q0 53 -41 102t-123 49q-68 0 -112 -37t-64 -110.5t-27.5 -149.5t-7.5 -188q117 117 289 116q184 0 276.5 -109.5t92.5 -297.5q0 -190 -117 -297t-326 -107q-119 0 -206 36 t-137 93.5t-79.5 149.5t-39 182t-9.5 213zM399 387q0 -109 51.5 -182.5t149.5 -73.5q193 0 193 258q0 246 -193 246q-201 0 -201 -248z" />
<glyph unicode="7" horiz-adv-x="1138" d="M135 1122v176h852v-174l-467 -1124h-258l467 1122h-594z" />
<glyph unicode="8" horiz-adv-x="1138" d="M117 342q0 88 19.5 151.5t60.5 99.5t68.5 51t76.5 34q-45 18 -73.5 36.5t-63.5 53.5t-52.5 90t-17.5 129q0 172 122 253t312 81q434 0 435 -342q0 -72 -18.5 -126t-54.5 -88t-62.5 -50.5t-69.5 -36.5q53 -20 79.5 -34.5t66.5 -51.5t58.5 -98.5t18.5 -151.5 q0 -365 -452.5 -365t-452.5 365zM367 379q0 -115 54 -181.5t148 -66.5q100 0 151.5 64.5t51.5 183.5q0 100 -50 163.5t-153 63.5q-98 0 -150 -64.5t-52 -162.5zM385 969q0 -98 50 -153.5t134 -55.5q88 0 136.5 54t48.5 153q0 201 -185 200q-78 0 -131 -54t-53 -144z" />
<glyph unicode="9" horiz-adv-x="1138" d="M104 918q0 190 117 296.5t324 106.5q115 0 198.5 -36t132 -93t77 -148.5t37.5 -181.5t9 -213q0 -166 -19 -280.5t-69.5 -207.5t-144.5 -138.5t-236 -45.5q-203 0 -298 95.5t-101 220.5h256q0 -53 41 -102.5t123 -49.5q61 0 101 37t59.5 109.5t25.5 150.5t6 189 q-113 -117 -270 -117q-186 0 -277.5 110t-91.5 298zM360 909q0 -246 191 -245q182 0 182 247q0 109 -46 182.5t-134 73.5q-193 0 -193 -258z" />
<glyph unicode=":" horiz-adv-x="606" d="M238 0v281h280v-281h-280zM238 694v281h280v-281h-280z" />
<glyph unicode=";" horiz-adv-x="606" d="M213 -205l37 486h258l-98 -486h-197zM244 694v281h280v-281h-280z" />
<glyph unicode="&#x3c;" horiz-adv-x="1214" d="M119 406v186l977 405v-186l-789 -313l789 -312v-186z" />
<glyph unicode="=" horiz-adv-x="1214" d="M121 252v184h973v-184h-973zM121 606v185h973v-185h-973z" />
<glyph unicode="&#x3e;" horiz-adv-x="1214" d="M119 0v186l790 312l-790 313v186l977 -405v-186z" />
<glyph unicode="?" horiz-adv-x="948" d="M115 1182v219q152 35 307 35q205 0 331 -83t126 -245q0 -82 -41 -153.5t-99.5 -124t-117 -101.5t-99.5 -105.5t-41 -115.5v-88h-221v147q0 63 39 126t94.5 112t110.5 96t94 98.5t39 100.5q0 160 -213 160q-80 0 -169 -24.5t-140 -53.5zM225 0v281h281v-281h-281z" />
<glyph unicode="@" horiz-adv-x="2048" d="M219 406q0 365 275.5 639t644.5 274q315 0 527 -186.5t212 -475.5q0 -270 -177 -463.5t-398 -193.5q-86 0 -117 45t-31 100l-14 -14q-14 -16 -23.5 -24.5t-29 -24.5t-39 -26.5t-44 -21.5t-54 -16.5t-62.5 -5.5q-117 0 -195 77t-78 216q0 147 76 303t201 261.5t254 105.5 q57 0 102 -16.5t74 -47t38 -45t23 -43.5l46 111h178l-172 -424q-125 -317 -125 -348q0 -55 61 -56q59 0 129 38t133.5 105.5t106.5 176.5t43 231q0 254 -186.5 405.5t-452.5 151.5q-193 0 -376 -116.5t-296 -305t-113 -384.5q0 -256 195 -421t518 -165q348 0 592 201l6 6 l55 -47q-72 -76 -254 -165t-407 -89q-367 0 -606.5 189.5t-239.5 488.5zM780 233q0 -137 142 -137q18 0 36.5 4t33 9.5t29.5 15.5t25.5 17.5t23.5 21.5t20.5 21.5t18.5 24.5t14 21.5t14 22.5l10 16q76 125 124 280t48 214q0 51 -35 91t-92 40q-92 0 -192.5 -125t-160 -281 t-59.5 -256z" />
<glyph unicode="A" horiz-adv-x="1251" d="M0 0l483 1413h289l481 -1413h-249l-123 383h-508l-123 -383h-250zM430 565h393l-194 621h-4z" />
<glyph unicode="B" horiz-adv-x="1138" d="M147 0v1413h435q68 0 129 -12t127.5 -45t105.5 -103.5t39 -171.5q0 -66 -17.5 -119t-40 -84.5t-60.5 -59t-60.5 -38t-56.5 -24.5v-4q305 -47 305 -361q0 -100 -31 -174t-76 -115t-111.5 -64.5t-124 -30.5t-128.5 -7h-435zM387 170h96q68 0 119 9t101.5 33t78 74t27.5 126 q0 252 -326 252h-96v-494zM387 834h96q127 0 191.5 40.5t64.5 165.5q0 123 -63.5 163t-192.5 40h-96v-409z" />
<glyph unicode="C" horiz-adv-x="1138" d="M92 713q0 217 53.5 373.5t181.5 253t322 96.5q233 0 354 -117t121 -293h-266q0 49 -7 86t-27.5 75t-64.5 58.5t-110 20.5q-88 0 -149.5 -47.5t-91 -129t-41 -163.5t-11.5 -176q0 -584 385 -584q150 0 330 104v-211q-193 -82 -385 -82q-299 0 -446.5 196t-147.5 540z" />
<glyph unicode="D" horiz-adv-x="1214" d="M154 0v1413h350q338 0 479 -160.5t141 -541.5q0 -135 -19.5 -245t-51 -182.5t-81.5 -126t-100.5 -83t-118 -47t-123 -22.5t-126.5 -5h-350zM393 170h111q190 0 273 113.5t83 427.5q0 279 -72.5 405.5t-283.5 126.5h-111v-1073z" />
<glyph unicode="E" horiz-adv-x="1062" d="M152 0v1413h825v-182h-586v-408h555v-182h-555v-459h602v-182h-841z" />
<glyph unicode="F" horiz-adv-x="985" d="M152 0v1413h798v-182h-559v-408h529v-182h-529v-641h-239z" />
<glyph unicode="G" horiz-adv-x="1251" d="M92 709q0 727 559 727q238 0 354.5 -106.5t116.5 -289.5h-266q0 90 -50 158t-155 68q-88 0 -148.5 -44t-91 -126t-43 -174.5t-12.5 -212.5q0 -561 338 -562q154 0 205 56v450h-266v170h506v-717q-57 -43 -177 -86t-268 -43q-303 0 -452.5 201t-149.5 531z" />
<glyph unicode="H" horiz-adv-x="1290" d="M152 0v1413h239v-586h508v586h240v-1413h-240v645h-508v-645h-239z" />
<glyph unicode="I" horiz-adv-x="530" d="M145 0v1413h240v-1413h-240z" />
<glyph unicode="J" horiz-adv-x="796" d="M0 4v189q129 -45 209 -46q121 0 170 55.5t49 164.5v1046h240v-1032q0 -104 -16.5 -172t-63.5 -124t-140.5 -82t-236.5 -26q-113 0 -211 27z" />
<glyph unicode="K" horiz-adv-x="1175" d="M150 0v1413h239v-616h4l455 616h291l-500 -672l539 -741h-291l-494 688h-4v-688h-239z" />
<glyph unicode="L" horiz-adv-x="948" d="M154 0v1413h239v-1231h555v-182h-794z" />
<glyph unicode="M" horiz-adv-x="1744" d="M150 0v1413h327l393 -1128h4l396 1128h325v-1413h-219v1114h-4l-389 -1114h-221l-389 1114h-4v-1114h-219z" />
<glyph unicode="N" horiz-adv-x="1366" d="M152 0v1413h294l545 -1040h4v1040h219v-1413h-268l-571 1092h-4v-1092h-219z" />
<glyph unicode="O" horiz-adv-x="1327" d="M92 706.5q0 161.5 27.5 288.5t91 229.5t177.5 157t276 54.5q571 0 571 -729.5t-571 -729.5q-162 0 -276 54.5t-177.5 157t-91 229.5t-27.5 288.5zM356 706.5q0 -559.5 307.5 -559.5t307.5 559.5t-307.5 559.5t-307.5 -559.5z" />
<glyph unicode="P" d="M150 0v1413h364q100 0 173 -12t154 -50t125 -125t44 -220q0 -119 -48.5 -204t-128 -126t-157.5 -57.5t-162 -16.5h-125v-602h-239zM389 772h125q113 0 182.5 58.5t69.5 175.5q0 131 -63.5 184t-188.5 53h-125v-471z" />
<glyph unicode="Q" horiz-adv-x="1366" d="M90 707q0 162 27.5 288.5t91 229t177.5 157t276 54.5q571 0 571 -729q0 -362 -146 -537l256 14v-184h-681q-162 0 -276 53t-177.5 151.5t-91 221.5t-27.5 281zM354 707q0 -537 307.5 -537t307.5 537q0 559 -307.5 559t-307.5 -559z" />
<glyph unicode="R" horiz-adv-x="1138" d="M147 0v1413h428q455 0 455 -371q0 -152 -75.5 -224.5t-204.5 -102.5v-4q57 -12 99 -37t64.5 -47.5t42 -68.5t25.5 -72.5t20 -88.5l86 -397h-243l-66 305q-20 96 -36.5 143.5t-48 89.5t-81 55t-131.5 13h-94v-606h-240zM387 776h94q137 0 221 49t84 191q0 111 -54 169 t-157 58h-188v-467z" />
<glyph unicode="S" horiz-adv-x="1062" d="M70 1071q0 180 136 272.5t349 92.5q152 0 346 -39v-221q-6 2 -41 16t-47 18t-45 15.5t-53.5 16.5t-50 11.5t-58 9.5t-59.5 3q-94 0 -153.5 -44t-59.5 -130q0 -68 69.5 -127.5t169 -110.5t197.5 -110.5t168 -152.5t70 -212q0 -193 -141.5 -297.5t-379.5 -104.5 q-141 0 -391 60v248q66 -39 106 -61.5t126 -49.5t168 -27q129 0 188 58.5t59 138.5q0 72 -50 133.5t-124.5 102.5t-162 92t-162 100t-124.5 127t-50 172z" />
<glyph unicode="T" horiz-adv-x="948" d="M0 1231v182h948v-182h-354v-1231h-240v1231h-354z" />
<glyph unicode="U" horiz-adv-x="1251" d="M135 432v981h240v-981q0 -285 252 -285q250 0 250 285v981h239v-981q0 -227 -128 -341t-361 -114q-227 0 -359.5 115t-132.5 340z" />
<glyph unicode="V" horiz-adv-x="1175" d="M-35 1413h250l369 -1137h4l375 1137h249l-485 -1413h-289z" />
<glyph unicode="W" horiz-adv-x="1857" d="M47 1413h219l203 -1063h4l361 1063h192l365 -1063h4l198 1063h219l-266 -1413h-250l-364 1044h-4l-359 -1044h-250z" />
<glyph unicode="X" horiz-adv-x="1175" d="M0 0l455 745l-400 668h262l273 -440l264 440h266l-397 -668l455 -745h-271l-317 520l-318 -520h-272z" />
<glyph unicode="Y" horiz-adv-x="1099" d="M-35 1413h273l313 -508l313 508h273l-467 -758v-655h-240v655z" />
<glyph unicode="Z" d="M35 0v182l645 1049h-610v182h888v-182l-645 -1049h676v-182h-954z" />
<glyph unicode="[" horiz-adv-x="720" d="M201 -258v1835h497v-164h-268v-1507h268v-164h-497z" />
<glyph unicode="\" horiz-adv-x="645" d="M-20 1559h217l469 -1838h-217z" />
<glyph unicode="]" horiz-adv-x="720" d="M23 -94h268v1507h-268v164h497v-1835h-497v164z" />
<glyph unicode="^" horiz-adv-x="872" d="M127 1061l246 352h127l245 -352h-165l-144 184l-143 -184h-166z" />
<glyph unicode="_" d="M0 -154h1024v-102h-1024v102z" />
<glyph unicode="`" horiz-adv-x="675" d="M82 1487h246l94 -342h-170z" />
<glyph unicode="a" horiz-adv-x="985" d="M92 233q0 90 43 155t100.5 96.5t141.5 50t135 22.5t113 6h12v96q0 178 -137 179q-150 0 -150 -150h-221q0 143 94 226t277 83q354 0 354 -303v-694h-217v113h-4q-66 -135 -254 -136q-125 0 -206 69.5t-81 186.5zM313 254q0 -117 121 -117q102 0 152.5 89t50.5 204 q-129 0 -226.5 -43t-97.5 -133z" />
<glyph unicode="b" d="M121 414v999h227v-555h4q86 139 252 139q170 0 253 -134t83 -376q0 -510 -412 -510q-195 0 -301 111t-106 326zM348 487q0 -190 38 -270t142 -80q170 0 170 350q0 106 -9 177t-49 129.5t-112 58.5q-63 0 -106 -59.5t-58.5 -137.5t-15.5 -168z" />
<glyph unicode="c" horiz-adv-x="909" d="M78 530q0 205 110.5 336t335.5 131q203 0 287 -100t84 -256h-242q0 197 -147 197q-90 0 -138.5 -75t-48.5 -192q0 -172 99.5 -303t302.5 -131q94 0 164 25v-139q-145 -45 -285 -46q-236 0 -379 135t-143 418z" />
<glyph unicode="d" d="M82 487q0 225 84 367.5t250 142.5q162 0 243 -139h5v555h227v-1413h-227v135h-5q-18 -51 -88.5 -104.5t-154.5 -53.5q-334 0 -334 510zM324 487q0 -334 168 -333q88 0 130 99t42 234q0 334 -172 334q-53 0 -89 -27.5t-51.5 -79.5t-21.5 -104.5t-6 -122.5z" />
<glyph unicode="e" horiz-adv-x="948" d="M82 539q0 215 102.5 336.5t315.5 121.5q182 0 276 -106.5t94 -288.5v-55h-577q0 -43 11 -94.5t39 -108.5t69 -102t105.5 -75t141.5 -30q82 0 187 37v-158q-119 -39 -273 -39q-236 0 -363.5 147t-127.5 415zM299 684h356q0 61 -38.5 114.5t-133.5 53.5q-88 0 -133 -54.5 t-51 -113.5z" />
<glyph unicode="f" horiz-adv-x="757" d="M45 817v158h178v133q0 158 101.5 243t298.5 85q139 0 227 -21v-174q-92 35 -178 35q-221 0 -221 -234v-67h286v-158h-286v-817h-228v817h-178z" />
<glyph unicode="g" d="M82 510q0 209 85 348t249 139q57 0 102 -13t75 -39.5t42 -42t33 -44.5h4v117h217v-1043q0 -207 -118 -300t-347 -93q-141 0 -305 39v223q156 -86 301 -86q80 0 133 26t77.5 71t33 88t8.5 100v152h-4q-90 -152 -252 -152q-94 0 -162 42t-103.5 116.5t-52 161t-16.5 190.5z M324 510q0 -334 168 -334q61 0 104 56.5t59.5 129t16.5 148.5q0 74 -14.5 139.5t-57.5 118.5t-108 53q-168 0 -168 -311z" />
<glyph unicode="h" horiz-adv-x="1062" d="M141 0v1413h228v-620h4q86 205 289 204q115 0 189.5 -80.5t74.5 -240.5v-676h-228v557q0 145 -19.5 186t-80.5 41q-106 0 -167.5 -115.5t-61.5 -246.5v-422h-228z" />
<glyph unicode="i" horiz-adv-x="530" d="M152 0v975h227v-975h-227zM152 1188v225h227v-225h-227z" />
<glyph unicode="j" horiz-adv-x="530" d="M-150 -293q66 -8 101 -8q133 0 175 72.5t42 228.5v975h227v-1036q0 -399 -467 -400q-12 0 -40.5 2t-37.5 2v164zM168 1188v225h227v-225h-227z" />
<glyph unicode="k" horiz-adv-x="985" d="M137 0v1413h228v-811l315 373h272l-360 -422l393 -553h-272l-344 492h-4v-492h-228z" />
<glyph unicode="l" horiz-adv-x="530" d="M152 0v1413h227v-1413h-227z" />
<glyph unicode="m" horiz-adv-x="1554" d="M141 0v975h228v-150h4q74 172 256 172q92 0 158.5 -49t86.5 -145h5q29 72 99.5 133t174.5 61q115 0 189.5 -80.5t74.5 -240.5v-676h-227v557q0 145 -19.5 186t-80.5 41q-90 0 -143.5 -115.5t-53.5 -246.5v-422h-227v557q0 145 -19.5 186t-81.5 41q-90 0 -143 -115.5 t-53 -246.5v-422h-228z" />
<glyph unicode="n" horiz-adv-x="1062" d="M141 0v975h228v-182h4q86 205 289 204q115 0 189.5 -80.5t74.5 -240.5v-676h-228v557q0 145 -19.5 186t-80.5 41q-106 0 -167.5 -115.5t-61.5 -246.5v-422h-228z" />
<glyph unicode="o" d="M82 487.5q0 241.5 110.5 375.5t319.5 134t319.5 -134t110.5 -375.5t-110.5 -376t-319.5 -134.5t-319.5 134.5t-110.5 376zM324 487.5q0 -77.5 7 -133t25.5 -108.5t57.5 -81t98 -28t98 28t57.5 81t25.5 108.5t7 133t-7 133t-25.5 108.5t-57.5 81t-98 28t-98 -28t-57.5 -81 t-25.5 -108.5t-7 -133z" />
<glyph unicode="p" d="M135 -438v1413h227v-135h5q20 51 88.5 104t152.5 53q336 0 336 -510q0 -227 -84 -368.5t-252 -141.5q-154 0 -241 140h-5v-555h-227zM362 487q0 -334 170 -333q72 0 112 53t49 118.5t9 161.5q0 334 -170 334q-86 0 -128 -100.5t-42 -233.5z" />
<glyph unicode="q" d="M82 487q0 510 334 510q84 0 154.5 -53t88.5 -104h5v135h227v-1413h-227v555h-5q-82 -139 -243 -140q-166 0 -250 142.5t-84 367.5zM324 487q0 -70 6 -122t21.5 -104t51 -79.5t89.5 -27.5q172 0 172 333q0 133 -42 233.5t-130 100.5q-168 0 -168 -334z" />
<glyph unicode="r" horiz-adv-x="720" d="M137 0v975h228v-180h4q27 47 46 73.5t56 61.5t90 51t123 16v-237q-172 0 -245.5 -77t-73.5 -255v-428h-228z" />
<glyph unicode="s" horiz-adv-x="757" d="M74 711q0 135 95 210.5t255 75.5q80 0 221 -36v-193q-131 66 -217 66q-57 0 -104.5 -25t-47.5 -66q0 -35 44.5 -70.5t108 -72.5t125.5 -79t106.5 -107.5t44.5 -143.5q0 -145 -100.5 -219t-268.5 -74q-135 0 -258 39v197q135 -59 248 -59q168 0 168 88q0 31 -43 66.5 t-105.5 74.5t-124 83t-104.5 108.5t-43 136.5z" />
<glyph unicode="t" horiz-adv-x="757" d="M41 817v158h190v231l228 137v-368h289v-158h-289v-461q0 -106 29.5 -162.5t123.5 -56.5q39 0 105 17v-160q-98 -16 -187 -17q-176 0 -237.5 71t-61.5 198v571h-190z" />
<glyph unicode="u" horiz-adv-x="1062" d="M139 299v676h228v-557q0 -145 19.5 -186.5t80.5 -41.5q104 0 166.5 115t62.5 248v422h228v-975h-228v182h-4q-86 -205 -289 -205q-115 0 -189.5 81t-74.5 241z" />
<glyph unicode="v" horiz-adv-x="909" d="M-2 975h238l217 -668h4l219 668h237l-348 -975h-221z" />
<glyph unicode="w" horiz-adv-x="1402" d="M68 975h208l144 -668h4l201 668h155l201 -668h4l143 668h209l-219 -975h-227l-186 623h-5l-186 -623h-227z" />
<glyph unicode="x" horiz-adv-x="985" d="M0 0l369 508l-322 467h260l187 -266l186 266h260l-315 -457l362 -518h-262l-231 334l-234 -334h-260z" />
<glyph unicode="y" horiz-adv-x="909" d="M-2 975h238l225 -658h4l211 658h237l-485 -1413h-209l139 426z" />
<glyph unicode="z" horiz-adv-x="796" d="M35 0v158l446 659h-420v158h682v-158l-446 -659h465v-158h-727z" />
<glyph unicode="{" horiz-adv-x="1138" d="M289 440v49q96 31 160.5 97.5t64.5 163.5q0 29 -33 192q-25 123 -24 197q0 141 134 241.5t298 106.5v-51q-106 -25 -162.5 -104t-56.5 -175q0 -59 14 -174t14 -162q0 -80 -31.5 -143.5t-93 -106.5t-96.5 -61t-96 -45q47 -20 73.5 -33.5t80 -47.5t84 -68.5t55 -90 t24.5 -116.5q0 -47 -14 -162t-14 -174q0 -96 56 -175t163 -104v-51q-164 6 -298 106.5t-134 241.5q0 74 24 197q33 164 33 192q0 90 -65.5 159.5t-159.5 100.5z" />
<glyph unicode="|" horiz-adv-x="606" d="M205 -258v1835h198v-1835h-198z" />
<glyph unicode="}" horiz-adv-x="1138" d="M256 -506q106 25 162.5 103.5t56.5 175.5q0 59 -14.5 173.5t-14.5 162.5q0 61 25 116.5t55.5 90t84 68.5t80 47t73.5 34q-61 27 -96 45t-96.5 61t-93.5 106.5t-32 143.5q0 47 14.5 162t14.5 174q0 96 -56.5 175t-162.5 104v51q164 -6 298 -106.5t134 -241.5 q0 -74 -24 -197q-33 -164 -33 -192q0 -96 64.5 -163t160.5 -98v-49q-94 -31 -159.5 -100.5t-65.5 -159.5q0 -29 33 -192q25 -123 24 -197q0 -141 -134 -241.5t-298 -106.5v51z" />
<glyph unicode="~" horiz-adv-x="1251" d="M133 350v187q0 88 43 145t123 57q18 0 37.5 -3t32 -6t31 -10t28.5 -12.5t30.5 -16.5t30.5 -15l312 -154q82 -45 106 -45q39 0 39 72v145h170v-159q0 -231 -194 -232q-68 0 -181 62l-305 149q-78 39 -92 39q-41 0 -41 -96v-107h-170z" />
<glyph unicode="&#xa1;" horiz-adv-x="645" d="M106 854v281h281v-281h-281zM125 -279l16 994h211l17 -994h-244z" />
<glyph unicode="&#xa2;" horiz-adv-x="985" d="M68 528q0 221 105.5 340t287.5 129v170h102v-170q156 -18 256.5 -107t100.5 -249h-234q0 207 -123 254v-795q43 -14 103 -14q127 0 225 49v-96q-145 -61 -328 -62v-192h-102v192q-393 68 -393 551zM324 557q0 -252 137 -401v739q-74 -25 -105.5 -108t-31.5 -230z" />
<glyph unicode="&#xa3;" d="M66 598v145h151v306q0 164 110.5 239.5t295.5 75.5q199 0 306 -96.5t111 -225.5h-256q-6 33 -11 50.5t-21.5 46t-50 43t-83.5 14.5q-98 0 -135 -54.5t-37 -152.5v-246h295v-145h-295v-399h549v-199h-778v598h-151z" />
<glyph unicode="&#xa4;" d="M27 1073l65 64l141 -140q131 94 281 95q147 0 279 -95l141 140l65 -64l-143 -141q98 -104 98 -285q0 -168 -96 -278l137 -136l-61 -63l-135 135q-129 -96 -285 -96q-164 0 -287 96l-135 -135l-61 63l137 136q-96 104 -96 278q0 162 98 285zM156 647q0 -145 105.5 -249.5 t252.5 -104.5q145 0 250.5 104.5t105.5 249.5q0 150 -104 255.5t-252 105.5q-150 0 -254 -105.5t-104 -255.5z" />
<glyph unicode="&#xa5;" horiz-adv-x="1099" d="M-37 1413h273l315 -508l311 508h273l-291 -475h215v-139h-301l-88 -144v-94h389v-139h-389v-422h-240v422h-391v139h391v94l-88 144h-303v139h217z" />
<glyph unicode="&#xa6;" horiz-adv-x="606" d="M205 -258v735h198v-735h-198zM205 842v735h198v-735h-198z" />
<glyph unicode="&#xa7;" d="M66 727q0 143 137 244q-90 84 -90 184q0 98 64.5 163.5t152.5 91.5t190 26q166 0 352 -54v-186q-184 80 -348 80q-72 0 -119 -26.5t-47 -63.5q0 -51 62.5 -90t150.5 -70t176.5 -66.5t151 -100t62.5 -153t-41 -148.5t-91 -89l11 -10l13 -14q3 -3 13.5 -15t15.5 -19.5 t13 -21.5t12 -26.5t9.5 -30t7.5 -35.5t2 -39q0 -131 -130 -206t-311 -75q-176 0 -344 54v188q221 -82 353 -82q186 0 186 101q0 49 -63.5 91t-153.5 76.5t-180 74.5t-153.5 103.5t-63.5 143.5zM256 807q0 -51 72.5 -96t207 -98.5t189.5 -84.5q45 57 45 103q0 29 -28.5 58.5 t-83 57t-107.5 51t-127 54.5t-117 51q-51 -51 -51 -96z" />
<glyph unicode="&#xa8;" horiz-adv-x="675" d="M0 1167v228h252v-228h-252zM422 1167v228h252v-228h-252z" />
<glyph unicode="&#xa9;" d="M31 954.5q0 198.5 141 340t340 141.5t340 -141.5t141 -340.5q0 -201 -140 -341t-341 -140q-199 0 -340 141.5t-141 340zM102 954q0 -168 121 -288.5t289 -120.5t289 120.5t121 288.5t-121 289t-289 121t-289 -121t-121 -289zM256 963q0 115 84 194.5t197 79.5 q98 0 194 -80l-53 -67q-70 63 -141.5 63t-131 -52t-59.5 -138q0 -88 58.5 -139.5t123.5 -51.5q18 0 34 2t30 7t23.5 8.5t20.5 11.5t15 10t17 12l10 11l53 -66q-88 -80 -194 -80q-113 0 -197 79t-84 196z" />
<glyph unicode="&#xaa;" horiz-adv-x="569" d="M63 723q0 180 302 180v55q0 98 -76 99q-80 0 -80 -84h-125q0 82 55.5 126t153.5 44q82 0 134 -37t52 -117v-395h-114v63h-5q-33 -74 -139 -73q-70 0 -114 38t-44 101zM186 733q0 -63 66 -63q55 0 84 50t29 111q-23 0 -48.5 -4t-57.5 -13t-52.5 -29.5t-20.5 -51.5z" />
<glyph unicode="&#xab;" horiz-adv-x="833" d="M63 518l146 395h211l-129 -395l129 -395h-211zM406 518l145 395h211l-129 -395l129 -395h-211z" />
<glyph unicode="&#xac;" horiz-adv-x="1214" d="M119 430v184h979v-538h-199v354h-780z" />
<glyph unicode="&#xad;" horiz-adv-x="948" d="M94 418v221h762v-221h-762z" />
<glyph unicode="&#xae;" d="M31 954.5q0 198.5 141 340t340 141.5t340 -141.5t141 -340.5q0 -201 -140 -341t-341 -140q-199 0 -340 141.5t-141 340zM102 954q0 -168 121 -288.5t289 -120.5t289 120.5t121 288.5t-121 289t-289 121t-289 -121t-121 -289zM330 713v508h170q59 0 99 -9.5t74 -47.5 t34 -107q0 -41 -18.5 -70t-29 -34t-41.5 -21l95 -219h-103l-78 205h-110v-205h-92zM422 999h110q78 0 78 66q0 68 -86 68h-102v-134z" />
<glyph unicode="&#xaf;" horiz-adv-x="675" d="M25 1145v158h626v-158h-626z" />
<glyph unicode="&#xb0;" horiz-adv-x="720" d="M123 1083.5q0 98.5 69.5 168t168 69.5t168 -69.5t69.5 -168t-69.5 -168t-168 -69.5t-168 69.5t-69.5 168zM240 1083.5q0 -51.5 34.5 -86t86 -34.5t86 34.5t34.5 86t-34.5 86t-86 34.5t-86 -34.5t-34.5 -86z" />
<glyph unicode="&#xb1;" horiz-adv-x="1214" d="M121 -96h973v-185h-973v185zM121 430v184h387v383h199v-383h387v-184h-387v-430h-199v430h-387z" />
<glyph unicode="&#xb2;" horiz-adv-x="796" d="M78 414v131q68 57 146.5 131t176 203t97.5 208q0 53 -32 89t-85 36q-66 0 -96.5 -33.5t-30.5 -82.5h-174q25 225 301 225q123 0 207 -64.5t84 -187.5q0 -76 -31 -146.5t-85 -130t-101 -101.5t-108.5 -88t-78.5 -60h408v-129h-598z" />
<glyph unicode="&#xb3;" horiz-adv-x="796" d="M63 610h185q10 -104 119 -104q139 0 139 160q0 96 -51.5 128.5t-139.5 32.5v109q51 0 84 7t59.5 39t26.5 91q0 68 -23.5 103.5t-84.5 35.5q-113 0 -117 -102h-174q0 84 76 147.5t213 63.5q125 0 204.5 -58.5t79.5 -164.5q0 -176 -141 -213v-4q78 -18 120 -68.5t42 -155.5 q0 -260 -303 -260q-164 0 -235 61.5t-79 151.5z" />
<glyph unicode="&#xb4;" horiz-adv-x="675" d="M252 1145l94 342h246l-170 -342h-170z" />
<glyph unicode="&#xb5;" horiz-adv-x="1062" d="M143 -438v1413h228v-557q0 -139 30.5 -196.5t112.5 -57.5t126 107.5t44 281.5v422h227v-682q0 -109 30 -141.5t103 -32.5v-123q-88 -18 -126 -19q-90 0 -145.5 36t-80.5 126q-76 -162 -231 -162q-49 0 -90 23v-438h-228z" />
<glyph unicode="&#xb6;" horiz-adv-x="1138" d="M190 918q0 131 54.5 227t130.5 146t183.5 80t182 36t160.5 6h141v-80h-143v-1773h-78v1771q-37 -2 -100 -10v-1761h-76v895q-63 12 -118.5 29.5t-119 54t-108.5 85t-76 124.5t-33 170z" />
<glyph unicode="&#xb7;" horiz-adv-x="493" d="M121 524v252h252v-252h-252z" />
<glyph unicode="&#xb8;" horiz-adv-x="675" d="M201 -354q78 -53 137 -54q43 0 66.5 28t23.5 63q0 59 -46 84.5t-103 25.5q-18 0 -52 -8l58 248h116l-39 -166q4 0 13.5 1t15.5 1q72 0 135.5 -44t63.5 -142q0 -92 -60.5 -150.5t-175.5 -58.5q-74 0 -153 43v129z" />
<glyph unicode="&#xb9;" horiz-adv-x="796" d="M170 1079v133l209 109h131v-907h-160v768z" />
<glyph unicode="&#xba;" horiz-adv-x="569" d="M47 862q0 281 237.5 281t237.5 -281q0 -279 -237.5 -279t-237.5 279zM180 862q0 -193 104.5 -192.5t104.5 192.5q0 195 -104.5 195t-104.5 -195z" />
<glyph unicode="&#xbb;" horiz-adv-x="833" d="M76 123l129 395l-129 395h211l145 -395l-145 -395h-211zM418 123l129 395l-129 395h211l145 -395l-145 -395h-211z" />
<glyph unicode="&#xbc;" horiz-adv-x="1820" d="M102 1079v133l209 109h131v-907h-159v768zM526 0l475 1298h156l-475 -1298h-156zM1008 219v113l374 555h181v-543h155v-125h-155v-219h-156v219h-399zM1155 344h252v381h-4z" />
<glyph unicode="&#xbd;" horiz-adv-x="1820" d="M145 1079v133l209 109h131v-907h-159v768zM522 0l475 1298h158l-477 -1298h-156zM1077 0v133q70 57 148 131t175 202t97 210q0 53 -30.5 89t-84.5 36q-129 0 -129 -119h-174q6 43 18.5 77t43 71.5t91 58t148.5 20.5q123 0 207 -65.5t84 -188.5q0 -74 -30.5 -145.5 t-84 -129.5t-101.5 -100t-108.5 -88.5t-78.5 -62.5h407v-129h-598z" />
<glyph unicode="&#xbe;" horiz-adv-x="1820" d="M63 610h185q10 -104 119 -104q139 0 139 160q0 96 -51.5 128.5t-139.5 32.5v109q51 0 84 7t59.5 39t26.5 91q0 68 -23.5 103.5t-84.5 35.5q-113 0 -117 -102h-174q0 84 76 147.5t213 63.5q125 0 204.5 -58.5t79.5 -164.5q0 -176 -141 -213v-4q78 -18 120 -68.5t42 -155.5 q0 -260 -303 -260q-164 0 -235 61.5t-79 151.5zM594 0l477 1298h156l-475 -1298h-158zM1075 219v113l375 555h180v-543h156v-125h-156v-219h-155v219h-400zM1223 344h252v381h-5z" />
<glyph unicode="&#xbf;" horiz-adv-x="948" d="M66 27q0 82 40.5 153.5t99 123.5t117 101.5t99.5 105.5t41 116v88h223v-148q0 -63 -39 -125.5t-95 -111.5t-111.5 -96.5t-94.5 -98.5t-39 -100q0 -160 215 -160q78 0 167 24.5t142 53.5v-219q-156 -35 -309 -35q-203 0 -329.5 83t-126.5 245zM438 854v281h281v-281h-281z " />
<glyph unicode="&#xc0;" horiz-adv-x="1251" d="M0 0l483 1413h289l481 -1413h-249l-123 383h-508l-123 -383h-250zM430 565h393l-194 621h-4zM371 1925h246l94 -342h-170z" />
<glyph unicode="&#xc1;" horiz-adv-x="1251" d="M0 0l483 1413h289l481 -1413h-249l-123 383h-508l-123 -383h-250zM430 565h393l-194 621h-4zM541 1583l94 342h246l-170 -342h-170z" />
<glyph unicode="&#xc2;" horiz-adv-x="1251" d="M0 0l483 1413h289l481 -1413h-249l-123 383h-508l-123 -383h-250zM430 565h393l-194 621h-4zM318 1583l198 305h222l198 -305h-166l-143 172l-143 -172h-166z" />
<glyph unicode="&#xc3;" horiz-adv-x="1251" d="M0 0l483 1413h289l481 -1413h-249l-123 383h-508l-123 -383h-250zM430 565h393l-194 621h-4zM344 1601q0 150 29 215.5t109 65.5q51 0 153 -68q106 -68 119 -67q20 0 27.5 23.5t7.5 92.5h121q0 -160 -26 -220t-114 -60q-61 0 -157.5 62.5t-112.5 62.5q-20 0 -27.5 -21.5 t-7.5 -85.5h-121z" />
<glyph unicode="&#xc4;" horiz-adv-x="1251" d="M0 0l483 1413h289l481 -1413h-249l-123 383h-508l-123 -383h-250zM430 565h393l-194 621h-4zM289 1605v228h252v-228h-252zM711 1605v228h252v-228h-252z" />
<glyph unicode="&#xc5;" horiz-adv-x="1251" d="M0 0l483 1413h289l481 -1413h-249l-123 383h-508l-123 -383h-250zM430 565h393l-194 621h-4zM420 1790q0 84 61.5 145.5t145.5 61.5t145.5 -61.5t61.5 -145.5t-61.5 -145.5t-145.5 -61.5t-145.5 61.5t-61.5 145.5zM539 1790q0 -37 25.5 -62.5t62.5 -25.5t62.5 25.5 t25.5 62.5t-25.5 62.5t-62.5 25.5t-62.5 -25.5t-25.5 -62.5z" />
<glyph unicode="&#xc6;" horiz-adv-x="1781" d="M2 0l799 1413h899v-182h-547l39 -488h477v-182h-463l31 -379h479v-182h-696l-45 561h-410l-291 -561h-272zM662 743h296l-36 498h-4z" />
<glyph unicode="&#xc7;" horiz-adv-x="1138" d="M92 713q0 217 53.5 373.5t181.5 253t322 96.5q233 0 354 -117t121 -293h-266q0 49 -7 86t-27.5 75t-64.5 58.5t-110 20.5q-88 0 -149.5 -47.5t-91 -129t-41 -163.5t-11.5 -176q0 -584 385 -584q150 0 330 104v-211q-193 -82 -385 -82q-33 0 -45 3l-27 -113q4 0 13.5 1 t15.5 1q72 0 135.5 -44t63.5 -142q0 -92 -60.5 -150.5t-175.5 -58.5q-74 0 -153 43v129q78 -53 137 -54q43 0 66.5 28t23.5 63q0 59 -46 84.5t-104 25.5q-18 0 -51 -8l49 211q-219 47 -327.5 234.5t-108.5 482.5z" />
<glyph unicode="&#xc8;" horiz-adv-x="1062" d="M152 0v1413h825v-182h-586v-408h555v-182h-555v-459h602v-182h-841zM307 1925h246l94 -342h-170z" />
<glyph unicode="&#xc9;" horiz-adv-x="1062" d="M152 0v1413h825v-182h-586v-408h555v-182h-555v-459h602v-182h-841zM467 1583l94 342h246l-170 -342h-170z" />
<glyph unicode="&#xca;" horiz-adv-x="1062" d="M152 0v1413h825v-182h-586v-408h555v-182h-555v-459h602v-182h-841zM244 1583l198 305h222l198 -305h-166l-143 172l-143 -172h-166z" />
<glyph unicode="&#xcb;" horiz-adv-x="1062" d="M152 0v1413h825v-182h-586v-408h555v-182h-555v-459h602v-182h-841zM225 1605v228h252v-228h-252zM647 1605v228h252v-228h-252z" />
<glyph unicode="&#xcc;" horiz-adv-x="530" d="M145 0v1413h240v-1413h-240zM10 1925h246l94 -342h-170z" />
<glyph unicode="&#xcd;" horiz-adv-x="530" d="M145 0v1413h240v-1413h-240zM180 1583l94 342h246l-170 -342h-170z" />
<glyph unicode="&#xce;" horiz-adv-x="530" d="M145 0v1413h240v-1413h-240zM-43 1583l198 305h222l198 -305h-166l-143 172l-143 -172h-166z" />
<glyph unicode="&#xcf;" horiz-adv-x="530" d="M145 0v1413h240v-1413h-240zM-72 1605v228h252v-228h-252zM350 1605v228h252v-228h-252z" />
<glyph unicode="&#xd0;" horiz-adv-x="1214" d="M0 670v129h154v614h350q338 0 479 -160.5t141 -541.5q0 -135 -19.5 -245t-51 -182.5t-81.5 -126t-100.5 -83t-118 -47t-123 -22.5t-126.5 -5h-350v670h-154zM393 170h111q190 0 273 113.5t83 427.5q0 279 -72.5 405.5t-283.5 126.5h-111v-444h256v-129h-256v-500z" />
<glyph unicode="&#xd1;" horiz-adv-x="1366" d="M152 0v1413h294l545 -1040h4v1040h219v-1413h-268l-571 1092h-4v-1092h-219zM401 1601q0 150 29 215.5t109 65.5q51 0 153 -68q106 -68 119 -67q20 0 27.5 23.5t7.5 92.5h121q0 -160 -26 -220t-114 -60q-61 0 -157.5 62.5t-112.5 62.5q-20 0 -27.5 -21.5t-7.5 -85.5h-121 z" />
<glyph unicode="&#xd2;" horiz-adv-x="1327" d="M92 706.5q0 161.5 27.5 288.5t91 229.5t177.5 157t276 54.5q571 0 571 -729.5t-571 -729.5q-162 0 -276 54.5t-177.5 157t-91 229.5t-27.5 288.5zM356 706.5q0 -559.5 307.5 -559.5t307.5 559.5t-307.5 559.5t-307.5 -559.5zM408 1925h246l94 -342h-170z" />
<glyph unicode="&#xd3;" horiz-adv-x="1327" d="M92 706.5q0 161.5 27.5 288.5t91 229.5t177.5 157t276 54.5q571 0 571 -729.5t-571 -729.5q-162 0 -276 54.5t-177.5 157t-91 229.5t-27.5 288.5zM356 706.5q0 -559.5 307.5 -559.5t307.5 559.5t-307.5 559.5t-307.5 -559.5zM578 1583l94 342h246l-170 -342h-170z" />
<glyph unicode="&#xd4;" horiz-adv-x="1327" d="M92 706.5q0 161.5 27.5 288.5t91 229.5t177.5 157t276 54.5q571 0 571 -729.5t-571 -729.5q-162 0 -276 54.5t-177.5 157t-91 229.5t-27.5 288.5zM356 706.5q0 -559.5 307.5 -559.5t307.5 559.5t-307.5 559.5t-307.5 -559.5zM355 1583l198 305h222l198 -305h-166 l-143 172l-143 -172h-166z" />
<glyph unicode="&#xd5;" horiz-adv-x="1327" d="M92 706.5q0 161.5 27.5 288.5t91 229.5t177.5 157t276 54.5q571 0 571 -729.5t-571 -729.5q-162 0 -276 54.5t-177.5 157t-91 229.5t-27.5 288.5zM356 706.5q0 -559.5 307.5 -559.5t307.5 559.5t-307.5 559.5t-307.5 -559.5zM381 1601q0 150 29 215.5t109 65.5 q51 0 153 -68q106 -68 119 -67q20 0 27.5 23.5t7.5 92.5h121q0 -160 -26 -220t-114 -60q-61 0 -157.5 62.5t-112.5 62.5q-20 0 -27.5 -21.5t-7.5 -85.5h-121z" />
<glyph unicode="&#xd6;" horiz-adv-x="1327" d="M92 706.5q0 161.5 27.5 288.5t91 229.5t177.5 157t276 54.5q571 0 571 -729.5t-571 -729.5q-162 0 -276 54.5t-177.5 157t-91 229.5t-27.5 288.5zM356 706.5q0 -559.5 307.5 -559.5t307.5 559.5t-307.5 559.5t-307.5 -559.5zM326 1605v228h252v-228h-252zM748 1605v228 h252v-228h-252z" />
<glyph unicode="&#xd7;" horiz-adv-x="1214" d="M123 145l346 361l-346 362l139 129l344 -348l344 348l140 -129l-342 -362l342 -361l-140 -145l-344 358l-350 -358z" />
<glyph unicode="&#xd8;" horiz-adv-x="1327" d="M92 707q0 729 572 729q207 0 340 -95l108 166l117 -71l-127 -193q133 -180 133 -536q0 -729 -571 -730q-197 0 -328 86l-103 -157l-114 71l114 179q-141 180 -141 551zM356 707q0 -190 33 -312l492 754q-76 117 -217 117q-308 0 -308 -559zM457 250q76 -102 207 -103 q307 0 307 560q0 172 -29 288z" />
<glyph unicode="&#xd9;" horiz-adv-x="1251" d="M135 432v981h240v-981q0 -285 252 -285q250 0 250 285v981h239v-981q0 -227 -128 -341t-361 -114q-227 0 -359.5 115t-132.5 340zM371 1925h246l94 -342h-170z" />
<glyph unicode="&#xda;" horiz-adv-x="1251" d="M135 432v981h240v-981q0 -285 252 -285q250 0 250 285v981h239v-981q0 -227 -128 -341t-361 -114q-227 0 -359.5 115t-132.5 340zM541 1583l94 342h246l-170 -342h-170z" />
<glyph unicode="&#xdb;" horiz-adv-x="1251" d="M135 432v981h240v-981q0 -285 252 -285q250 0 250 285v981h239v-981q0 -227 -128 -341t-361 -114q-227 0 -359.5 115t-132.5 340zM318 1583l198 305h222l198 -305h-166l-143 172l-143 -172h-166z" />
<glyph unicode="&#xdc;" horiz-adv-x="1251" d="M135 432v981h240v-981q0 -285 252 -285q250 0 250 285v981h239v-981q0 -227 -128 -341t-361 -114q-227 0 -359.5 115t-132.5 340zM289 1605v228h252v-228h-252zM711 1605v228h252v-228h-252z" />
<glyph unicode="&#xdd;" horiz-adv-x="1099" d="M-35 1413h273l313 -508l313 508h273l-467 -758v-655h-240v655zM496 1583l94 342h246l-170 -342h-170z" />
<glyph unicode="&#xde;" horiz-adv-x="1251" d="M145 0v1413h240v-246h240q123 0 198.5 -7t150.5 -31.5t113.5 -71.5t62.5 -129t24 -203q0 -133 -30 -216t-100.5 -129t-167 -62.5t-251.5 -16.5h-240v-301h-240zM385 471h240q168 0 236.5 59.5t68.5 194.5q0 154 -65.5 213t-239.5 59h-240v-526z" />
<glyph unicode="&#xdf;" horiz-adv-x="1099" d="M123 0v938q0 82 8 146.5t35 133t70 113.5t119.5 75t179.5 30q182 0 293.5 -97.5t111.5 -259.5q0 -150 -61.5 -220.5t-169.5 -96.5v-4q137 -16 217 -103.5t80 -279.5q0 -184 -98.5 -291t-299.5 -107q-94 0 -170 23v133q78 -25 127 -24q106 0 152.5 77.5t46.5 196.5 q0 182 -59.5 245.5t-200.5 69.5v129q100 0 147 54.5t47 189.5q0 102 -38.5 168t-124.5 66q-49 0 -84 -18.5t-53.5 -45.5t-30 -69t-14.5 -76.5t-3 -81.5v-1014h-227z" />
<glyph unicode="&#xe0;" horiz-adv-x="985" d="M92 233q0 90 43 155t100.5 96.5t141.5 50t135 22.5t113 6h12v96q0 178 -137 179q-150 0 -150 -150h-221q0 143 94 226t277 83q354 0 354 -303v-694h-217v113h-4q-66 -135 -254 -136q-125 0 -206 69.5t-81 186.5zM313 254q0 -117 121 -117q102 0 152.5 89t50.5 204 q-129 0 -226.5 -43t-97.5 -133zM238 1487h246l94 -342h-170z" />
<glyph unicode="&#xe1;" horiz-adv-x="985" d="M92 233q0 90 43 155t100.5 96.5t141.5 50t135 22.5t113 6h12v96q0 178 -137 179q-150 0 -150 -150h-221q0 143 94 226t277 83q354 0 354 -303v-694h-217v113h-4q-66 -135 -254 -136q-125 0 -206 69.5t-81 186.5zM313 254q0 -117 121 -117q102 0 152.5 89t50.5 204 q-129 0 -226.5 -43t-97.5 -133zM408 1145l94 342h246l-170 -342h-170z" />
<glyph unicode="&#xe2;" horiz-adv-x="985" d="M92 233q0 90 43 155t100.5 96.5t141.5 50t135 22.5t113 6h12v96q0 178 -137 179q-150 0 -150 -150h-221q0 143 94 226t277 83q354 0 354 -303v-694h-217v113h-4q-66 -135 -254 -136q-125 0 -206 69.5t-81 186.5zM313 254q0 -117 121 -117q102 0 152.5 89t50.5 204 q-129 0 -226.5 -43t-97.5 -133zM185 1145l198 305h222l198 -305h-166l-143 172l-143 -172h-166z" />
<glyph unicode="&#xe3;" horiz-adv-x="985" d="M92 233q0 90 43 155t100.5 96.5t141.5 50t135 22.5t113 6h12v96q0 178 -137 179q-150 0 -150 -150h-221q0 143 94 226t277 83q354 0 354 -303v-694h-217v113h-4q-66 -135 -254 -136q-125 0 -206 69.5t-81 186.5zM313 254q0 -117 121 -117q102 0 152.5 89t50.5 204 q-129 0 -226.5 -43t-97.5 -133zM211 1163q0 150 29 215.5t109 65.5q51 0 153 -68q106 -68 119 -67q20 0 27.5 23.5t7.5 92.5h121q0 -160 -26 -220t-114 -60q-61 0 -157.5 62.5t-112.5 62.5q-20 0 -27.5 -21.5t-7.5 -85.5h-121z" />
<glyph unicode="&#xe4;" horiz-adv-x="985" d="M92 233q0 90 43 155t100.5 96.5t141.5 50t135 22.5t113 6h12v96q0 178 -137 179q-150 0 -150 -150h-221q0 143 94 226t277 83q354 0 354 -303v-694h-217v113h-4q-66 -135 -254 -136q-125 0 -206 69.5t-81 186.5zM313 254q0 -117 121 -117q102 0 152.5 89t50.5 204 q-129 0 -226.5 -43t-97.5 -133zM156 1167v228h252v-228h-252zM578 1167v228h252v-228h-252z" />
<glyph unicode="&#xe5;" horiz-adv-x="985" d="M92 233q0 90 43 155t100.5 96.5t141.5 50t135 22.5t113 6h12v96q0 178 -137 179q-150 0 -150 -150h-221q0 143 94 226t277 83q354 0 354 -303v-694h-217v113h-4q-66 -135 -254 -136q-125 0 -206 69.5t-81 186.5zM313 254q0 -117 121 -117q102 0 152.5 89t50.5 204 q-129 0 -226.5 -43t-97.5 -133zM287 1352q0 84 61.5 145.5t145.5 61.5t145.5 -61.5t61.5 -145.5t-61.5 -145.5t-145.5 -61.5t-145.5 61.5t-61.5 145.5zM406 1352q0 -37 25.5 -62.5t62.5 -25.5t62.5 25.5t25.5 62.5t-25.5 62.5t-62.5 25.5t-62.5 -25.5t-25.5 -62.5z" />
<glyph unicode="&#xe6;" horiz-adv-x="1517" d="M92 256q0 371 557 371q0 57 -4 87.5t-17.5 63.5t-45 46.5t-82.5 13.5q-70 0 -106 -37t-36 -82h-221q4 129 102.5 203.5t260.5 74.5q176 0 262 -108q119 109 307 108q180 0 274.5 -105.5t94.5 -289.5v-113h-576q0 -49 19.5 -105t59.5 -113.5t116 -95.5t172 -38 q82 0 186 37v-158q-119 -39 -272 -39q-250 0 -393 185q-43 -78 -135.5 -131.5t-235.5 -53.5q-123 0 -205 78t-82 201zM313 276q0 -66 35 -102.5t86 -36.5q125 0 170 90t45 262q-336 0 -336 -213zM868 627h357q0 225 -172 225q-94 0 -139.5 -66.5t-45.5 -158.5z" />
<glyph unicode="&#xe7;" horiz-adv-x="909" d="M78 530q0 205 110.5 336t335.5 131q203 0 287 -100t84 -256h-242q0 197 -147 197q-90 0 -138.5 -75t-48.5 -192q0 -172 99.5 -303t302.5 -131q94 0 164 25v-139q-145 -45 -285 -46q-47 0 -94 7l-27 -117q4 0 13.5 1t15.5 1q72 0 135.5 -44t63.5 -142q0 -92 -60.5 -150.5 t-175.5 -58.5q-74 0 -154 43v129q78 -53 138 -54q43 0 66.5 28t23.5 63q0 59 -46 84.5t-104 25.5q-18 0 -51 -8l51 223q-317 106 -317 522z" />
<glyph unicode="&#xe8;" horiz-adv-x="948" d="M82 539q0 215 102.5 336.5t315.5 121.5q182 0 276 -106.5t94 -288.5v-55h-577q0 -43 11 -94.5t39 -108.5t69 -102t105.5 -75t141.5 -30q82 0 187 37v-158q-119 -39 -273 -39q-236 0 -363.5 147t-127.5 415zM299 684h356q0 61 -38.5 114.5t-133.5 53.5q-88 0 -133 -54.5 t-51 -113.5zM240 1487h246l94 -342h-170z" />
<glyph unicode="&#xe9;" horiz-adv-x="948" d="M82 539q0 215 102.5 336.5t315.5 121.5q182 0 276 -106.5t94 -288.5v-55h-577q0 -43 11 -94.5t39 -108.5t69 -102t105.5 -75t141.5 -30q82 0 187 37v-158q-119 -39 -273 -39q-236 0 -363.5 147t-127.5 415zM299 684h356q0 61 -38.5 114.5t-133.5 53.5q-88 0 -133 -54.5 t-51 -113.5zM410 1145l94 342h246l-170 -342h-170z" />
<glyph unicode="&#xea;" horiz-adv-x="948" d="M82 539q0 215 102.5 336.5t315.5 121.5q182 0 276 -106.5t94 -288.5v-55h-577q0 -43 11 -94.5t39 -108.5t69 -102t105.5 -75t141.5 -30q82 0 187 37v-158q-119 -39 -273 -39q-236 0 -363.5 147t-127.5 415zM299 684h356q0 61 -38.5 114.5t-133.5 53.5q-88 0 -133 -54.5 t-51 -113.5zM166 1145l198 305h222l198 -305h-166l-143 172l-143 -172h-166z" />
<glyph unicode="&#xeb;" horiz-adv-x="948" d="M82 539q0 215 102.5 336.5t315.5 121.5q182 0 276 -106.5t94 -288.5v-55h-577q0 -43 11 -94.5t39 -108.5t69 -102t105.5 -75t141.5 -30q82 0 187 37v-158q-119 -39 -273 -39q-236 0 -363.5 147t-127.5 415zM299 684h356q0 61 -38.5 114.5t-133.5 53.5q-88 0 -133 -54.5 t-51 -113.5zM137 1167v228h252v-228h-252zM559 1167v228h252v-228h-252z" />
<glyph unicode="&#xec;" horiz-adv-x="530" d="M152 0v975h227v-975h-227zM10 1487h246l94 -342h-170z" />
<glyph unicode="&#xed;" horiz-adv-x="530" d="M152 0v975h227v-975h-227zM180 1145l94 342h246l-170 -342h-170z" />
<glyph unicode="&#xee;" horiz-adv-x="530" d="M152 0v975h227v-975h-227zM-43 1145l198 305h222l198 -305h-166l-143 172l-143 -172h-166z" />
<glyph unicode="&#xef;" horiz-adv-x="530" d="M152 0v975h227v-975h-227zM-72 1167v228h252v-228h-252zM350 1167v228h252v-228h-252z" />
<glyph unicode="&#xf0;" d="M82 487q0 244 101.5 377t295.5 133q82 0 154 -47l4 4q-78 106 -139 158l-217 -74l-33 95l153 53q-156 86 -223 108v6h342q12 -8 38 -24t38 -25l168 58l33 -99l-111 -36q256 -287 256 -687q0 -242 -110.5 -376t-319.5 -134t-319.5 134t-110.5 376zM324 487.5 q0 -77.5 7 -133t25.5 -108.5t57.5 -81t98 -28t98 28t57.5 81t25.5 108.5t7 133t-7 133t-25.5 108.5t-57.5 81t-98 28t-98 -28t-57.5 -81t-25.5 -108.5t-7 -133z" />
<glyph unicode="&#xf1;" horiz-adv-x="1062" d="M141 0v975h228v-182h4q86 205 289 204q115 0 189.5 -80.5t74.5 -240.5v-676h-228v557q0 145 -19.5 186t-80.5 41q-106 0 -167.5 -115.5t-61.5 -246.5v-422h-228zM250 1163q0 150 29 215.5t109 65.5q51 0 153 -68q106 -68 119 -67q20 0 27.5 23.5t7.5 92.5h121 q0 -160 -26 -220t-114 -60q-61 0 -157.5 62.5t-112.5 62.5q-20 0 -27.5 -21.5t-7.5 -85.5h-121z" />
<glyph unicode="&#xf2;" d="M82 487.5q0 241.5 110.5 375.5t319.5 134t319.5 -134t110.5 -375.5t-110.5 -376t-319.5 -134.5t-319.5 134.5t-110.5 376zM324 487.5q0 -77.5 7 -133t25.5 -108.5t57.5 -81t98 -28t98 28t57.5 81t25.5 108.5t7 133t-7 133t-25.5 108.5t-57.5 81t-98 28t-98 -28t-57.5 -81 t-25.5 -108.5t-7 -133zM256 1487h246l94 -342h-170z" />
<glyph unicode="&#xf3;" d="M82 487.5q0 241.5 110.5 375.5t319.5 134t319.5 -134t110.5 -375.5t-110.5 -376t-319.5 -134.5t-319.5 134.5t-110.5 376zM324 487.5q0 -77.5 7 -133t25.5 -108.5t57.5 -81t98 -28t98 28t57.5 81t25.5 108.5t7 133t-7 133t-25.5 108.5t-57.5 81t-98 28t-98 -28t-57.5 -81 t-25.5 -108.5t-7 -133zM426 1145l94 342h246l-170 -342h-170z" />
<glyph unicode="&#xf4;" d="M82 487.5q0 241.5 110.5 375.5t319.5 134t319.5 -134t110.5 -375.5t-110.5 -376t-319.5 -134.5t-319.5 134.5t-110.5 376zM324 487.5q0 -77.5 7 -133t25.5 -108.5t57.5 -81t98 -28t98 28t57.5 81t25.5 108.5t7 133t-7 133t-25.5 108.5t-57.5 81t-98 28t-98 -28t-57.5 -81 t-25.5 -108.5t-7 -133zM203 1145l198 305h222l198 -305h-166l-143 172l-143 -172h-166z" />
<glyph unicode="&#xf5;" d="M82 487.5q0 241.5 110.5 375.5t319.5 134t319.5 -134t110.5 -375.5t-110.5 -376t-319.5 -134.5t-319.5 134.5t-110.5 376zM324 487.5q0 -77.5 7 -133t25.5 -108.5t57.5 -81t98 -28t98 28t57.5 81t25.5 108.5t7 133t-7 133t-25.5 108.5t-57.5 81t-98 28t-98 -28t-57.5 -81 t-25.5 -108.5t-7 -133zM229 1163q0 150 29 215.5t109 65.5q51 0 153 -68q106 -68 119 -67q20 0 27.5 23.5t7.5 92.5h121q0 -160 -26 -220t-114 -60q-61 0 -157.5 62.5t-112.5 62.5q-20 0 -27.5 -21.5t-7.5 -85.5h-121z" />
<glyph unicode="&#xf6;" d="M82 487.5q0 241.5 110.5 375.5t319.5 134t319.5 -134t110.5 -375.5t-110.5 -376t-319.5 -134.5t-319.5 134.5t-110.5 376zM324 487.5q0 -77.5 7 -133t25.5 -108.5t57.5 -81t98 -28t98 28t57.5 81t25.5 108.5t7 133t-7 133t-25.5 108.5t-57.5 81t-98 28t-98 -28t-57.5 -81 t-25.5 -108.5t-7 -133zM174 1167v228h252v-228h-252zM596 1167v228h252v-228h-252z" />
<glyph unicode="&#xf7;" horiz-adv-x="1214" d="M121 430v184h973v-184h-973zM487 0v240h240v-240h-240zM487 805v239h240v-239h-240z" />
<glyph unicode="&#xf8;" d="M82 -53l111 164q-111 131 -111 376q0 242 110.5 376t319.5 134q141 0 240 -63l104 149l88 -61l-110 -162q109 -137 108 -373q0 -242 -110.5 -376t-319.5 -134q-137 0 -238 62l-104 -154zM324 487q0 -90 12 -168l309 455q-45 63 -133 64q-59 0 -98 -28t-57.5 -81 t-25.5 -108.5t-7 -133.5zM381 195q45 -57 131 -58q59 0 98 28t57.5 81t25.5 108.5t7 132.5q0 100 -10 162z" />
<glyph unicode="&#xf9;" horiz-adv-x="1062" d="M139 299v676h228v-557q0 -145 19.5 -186.5t80.5 -41.5q104 0 166.5 115t62.5 248v422h228v-975h-228v182h-4q-86 -205 -289 -205q-115 0 -189.5 81t-74.5 241zM277 1487h246l94 -342h-170z" />
<glyph unicode="&#xfa;" horiz-adv-x="1062" d="M139 299v676h228v-557q0 -145 19.5 -186.5t80.5 -41.5q104 0 166.5 115t62.5 248v422h228v-975h-228v182h-4q-86 -205 -289 -205q-115 0 -189.5 81t-74.5 241zM447 1145l94 342h246l-170 -342h-170z" />
<glyph unicode="&#xfb;" horiz-adv-x="1062" d="M139 299v676h228v-557q0 -145 19.5 -186.5t80.5 -41.5q104 0 166.5 115t62.5 248v422h228v-975h-228v182h-4q-86 -205 -289 -205q-115 0 -189.5 81t-74.5 241zM224 1145l198 305h222l198 -305h-166l-143 172l-143 -172h-166z" />
<glyph unicode="&#xfc;" horiz-adv-x="1062" d="M139 299v676h228v-557q0 -145 19.5 -186.5t80.5 -41.5q104 0 166.5 115t62.5 248v422h228v-975h-228v182h-4q-86 -205 -289 -205q-115 0 -189.5 81t-74.5 241zM195 1167v228h252v-228h-252zM617 1167v228h252v-228h-252z" />
<glyph unicode="&#xfd;" horiz-adv-x="909" d="M-2 975h238l225 -658h4l211 658h237l-485 -1413h-209l139 426zM389 1145l94 342h246l-170 -342h-170z" />
<glyph unicode="&#xfe;" d="M135 -438v1851h227v-573h5q20 51 88.5 104t152.5 53q336 0 336 -510q0 -227 -84 -368.5t-252 -141.5q-154 0 -241 140h-5v-555h-227zM362 487q0 -334 170 -333q72 0 112 53t49 118.5t9 161.5q0 334 -170 334q-86 0 -128 -100.5t-42 -233.5z" />
<glyph unicode="&#xff;" horiz-adv-x="909" d="M-2 975h238l225 -658h4l211 658h237l-485 -1413h-209l139 426zM117 1167v228h252v-228h-252zM539 1167v228h252v-228h-252z" />
<glyph unicode="&#x131;" horiz-adv-x="530" d="M152 0v975h227v-975h-227z" />
<glyph unicode="&#x152;" horiz-adv-x="1896" d="M94 706.5q0 729.5 572 729.5q84 0 173 -48.5t142 -130.5h4v156h827v-182h-587v-408h557v-182h-557v-459h604v-182h-844v160h-4q-49 -80 -143.5 -131.5t-171.5 -51.5q-572 0 -572 729.5zM358 706.5q0 -559.5 307.5 -559.5t307.5 559.5t-307.5 559.5t-307.5 -559.5z" />
<glyph unicode="&#x153;" horiz-adv-x="1593" d="M82 487.5q0 241.5 110.5 375.5t319.5 134q201 0 313 -125q125 125 320 125q182 0 276.5 -105.5t94.5 -289.5v-113h-576q0 -49 19.5 -105t59.5 -113.5t115.5 -95.5t172.5 -38q82 0 186 37v-158q-119 -39 -272 -39q-233 0 -367 158q-113 -158 -342 -158 q-209 0 -319.5 134.5t-110.5 376zM324 487.5q0 -77.5 7 -133t25.5 -108.5t57.5 -81t98 -28t98 28t57.5 81t25.5 108.5t7 133t-7 133t-25.5 108.5t-57.5 81t-98 28t-98 -28t-57.5 -81t-25.5 -108.5t-7 -133zM946 627h357q0 225 -175 225q-92 0 -137 -66.5t-45 -158.5z" />
<glyph unicode="&#x178;" horiz-adv-x="1099" d="M-35 1413h273l313 -508l313 508h273l-467 -758v-655h-240v655zM213 1605v228h252v-228h-252zM635 1605v228h252v-228h-252z" />
<glyph unicode="&#x2c6;" horiz-adv-x="675" d="M29 1145l198 305h222l198 -305h-166l-143 172l-143 -172h-166z" />
<glyph unicode="&#x2da;" horiz-adv-x="675" d="M131 1352q0 84 61.5 145.5t145.5 61.5t145.5 -61.5t61.5 -145.5t-61.5 -145.5t-145.5 -61.5t-145.5 61.5t-61.5 145.5zM250 1352q0 -37 25.5 -62.5t62.5 -25.5t62.5 25.5t25.5 62.5t-25.5 62.5t-62.5 25.5t-62.5 -25.5t-25.5 -62.5z" />
<glyph unicode="&#x2dc;" horiz-adv-x="675" d="M55 1163q0 150 29 215.5t109 65.5q51 0 153 -68q106 -68 119 -67q20 0 27.5 23.5t7.5 92.5h121q0 -160 -26 -220t-114 -60q-61 0 -157.5 62.5t-112.5 62.5q-20 0 -27.5 -21.5t-7.5 -85.5h-121z" />
<glyph unicode="&#x3bc;" horiz-adv-x="1062" d="M143 -438v1413h228v-557q0 -139 30.5 -196.5t112.5 -57.5t126 107.5t44 281.5v422h227v-682q0 -109 30 -141.5t103 -32.5v-123q-88 -18 -126 -19q-90 0 -145.5 36t-80.5 126q-76 -162 -231 -162q-49 0 -90 23v-438h-228z" />
<glyph unicode="&#x2000;" horiz-adv-x="997" />
<glyph unicode="&#x2001;" horiz-adv-x="1996" />
<glyph unicode="&#x2002;" horiz-adv-x="997" />
<glyph unicode="&#x2003;" horiz-adv-x="1996" />
<glyph unicode="&#x2004;" horiz-adv-x="665" />
<glyph unicode="&#x2005;" horiz-adv-x="497" />
<glyph unicode="&#x2006;" horiz-adv-x="331" />
<glyph unicode="&#x2007;" horiz-adv-x="331" />
<glyph unicode="&#x2008;" horiz-adv-x="247" />
<glyph unicode="&#x2009;" horiz-adv-x="399" />
<glyph unicode="&#x200a;" horiz-adv-x="110" />
<glyph unicode="&#x2010;" horiz-adv-x="948" d="M94 418v221h762v-221h-762z" />
<glyph unicode="&#x2011;" horiz-adv-x="948" d="M94 418v221h762v-221h-762z" />
<glyph unicode="&#x2012;" horiz-adv-x="948" d="M94 418v221h762v-221h-762z" />
<glyph unicode="&#x2013;" horiz-adv-x="1138" d="M94 418v221h950v-221h-950z" />
<glyph unicode="&#x2014;" horiz-adv-x="1478" d="M92 418v221h1294v-221h-1294z" />
<glyph unicode="&#x2018;" horiz-adv-x="493" d="M104 928l80 485h195l-19 -485h-256z" />
<glyph unicode="&#x2019;" horiz-adv-x="493" d="M115 928l18 485h256l-80 -485h-194z" />
<glyph unicode="&#x201a;" horiz-adv-x="493" d="M115 -205l18 486h256l-80 -486h-194z" />
<glyph unicode="&#x201c;" horiz-adv-x="872" d="M104 928l80 485h195l-19 -485h-256zM481 928l80 485h195l-19 -485h-256z" />
<glyph unicode="&#x201d;" horiz-adv-x="872" d="M115 928l18 485h256l-80 -485h-194zM492 928l18 485h256l-80 -485h-194z" />
<glyph unicode="&#x201e;" horiz-adv-x="872" d="M115 -205l18 486h256l-80 -486h-194zM492 -205l18 486h256l-80 -486h-194z" />
<glyph unicode="&#x2022;" horiz-adv-x="1138" d="M199 705q0 154 108.5 263t262 109t262 -109.5t108.5 -262.5q0 -152 -109.5 -260.5t-261 -108.5t-261 108.5t-109.5 260.5z" />
<glyph unicode="&#x2026;" horiz-adv-x="1478" d="M127 0v240h240v-240h-240zM621 0v240h239v-240h-239zM1114 0v240h240v-240h-240z" />
<glyph unicode="&#x202f;" horiz-adv-x="399" />
<glyph unicode="&#x2039;" horiz-adv-x="493" d="M63 518l146 395h211l-129 -395l129 -395h-211z" />
<glyph unicode="&#x203a;" horiz-adv-x="493" d="M76 123l129 395l-129 395h211l145 -395l-145 -395h-211z" />
<glyph unicode="&#x205f;" horiz-adv-x="497" />
<glyph unicode="&#x2122;" horiz-adv-x="1251" d="M66 1327v86h389v-86h-150v-508h-90v508h-149zM522 819v594h164l98 -467h4l101 467h164v-594h-90v537h-5l-116 -537h-109l-117 537h-4v-537h-90z" />
<glyph unicode="&#xe000;" horiz-adv-x="975" d="M0 975h975v-975h-975v975z" />
<glyph unicode="&#xfb01;" horiz-adv-x="1251" d="M45 817v158h178v133q0 158 95.5 243t281.5 85q127 0 213 -21v-174q-82 35 -166 35q-197 0 -196 -234v-67h286v-158h-286v-817h-228v817h-178zM874 0v975h228v-975h-228zM874 1188v225h228v-225h-228z" />
<glyph unicode="&#xfb02;" horiz-adv-x="1251" d="M45 817v158h178v133q0 158 92.5 243t274.5 85q135 0 227 -21v-174q-96 35 -180 35q-186 0 -186 -234v-67h286v-158h-286v-817h-228v817h-178zM874 0v1413h228v-1413h-228z" />
<glyph unicode="&#xfb03;" horiz-adv-x="2045" d="M1668 0v975h227v-975h-227zM1668 1188v225h227v-225h-227zM803 817v158h178v133q0 158 101.5 243t298.5 85q139 0 227 -21v-174q-92 35 -178 35q-221 0 -221 -234v-67h286v-158h-286v-817h-228v817h-178zM45 817v158h178v133q0 158 101.5 243t298.5 85q139 0 227 -21 v-174q-92 35 -178 35q-221 0 -221 -234v-67h286v-158h-286v-817h-228v817h-178z" />
<glyph unicode="&#xfb04;" horiz-adv-x="2045" d="M1668 0v1413h227v-1413h-227zM803 817v158h178v133q0 158 101.5 243t298.5 85q139 0 227 -21v-174q-92 35 -178 35q-221 0 -221 -234v-67h286v-158h-286v-817h-228v817h-178zM45 817v158h178v133q0 158 101.5 243t298.5 85q139 0 227 -21v-174q-92 35 -178 35 q-221 0 -221 -234v-67h286v-158h-286v-817h-228v817h-178z" />
</font>
</defs>
</svg>
